<?xml version="1.0" encoding="utf-8"?>
<!-- Generator: Adobe Illustrator 24.3.0, SVG Export Plug-In . SVG Version: 6.00 Build 0)  -->
<svg version="1.1" id="Layer_1" xmlns="http://www.w3.org/2000/svg" xmlns:xlink="http://www.w3.org/1999/xlink" x="0px" y="0px"
	 viewBox="0 0 85.4 85.7" style="enable-background:new 0 0 85.4 85.7;" xml:space="preserve">
<path d="M33.3,5.6H11.6c-2.8,0-5,2.2-5,5v21.7c0,2.8,2.2,5,5,5h21.7c2.8,0,5-2.2,5-5V10.6C38.3,7.9,36.1,5.6,33.3,5.6z"/>
<path d="M74.6,5.6H52.9c-2.8,0-5,2.2-5,5v21.7c0,2.8,2.2,5,5,5h21.7c2.8,0,5-2.2,5-5V10.6C79.6,7.9,77.3,5.6,74.6,5.6z M75.6,32.3
	c0,0.6-0.4,1-1,1H52.9c-0.6,0-1-0.4-1-1V10.6c0-0.6,0.4-1,1-1h21.7c0.6,0,1,0.4,1,1V32.3z"/>
<path d="M33.3,46.9H11.6c-2.8,0-5,2.2-5,5v21.7c0,2.8,2.2,5,5,5h21.7c2.8,0,5-2.2,5-5V51.9C38.3,49.1,36.1,46.9,33.3,46.9z"/>
<path d="M74.6,46.9H52.9c-2.8,0-5,2.2-5,5v21.7c0,2.8,2.2,5,5,5h21.7c2.8,0,5-2.2,5-5V51.9C79.6,49.1,77.3,46.9,74.6,46.9z"/>
</svg>
